# xmcd CD database file
#
# Track frame offsets:
#	202
#	28752
#	30957
#	100535
#	113352
#
# Disc length: 2090 seconds
#
# Revision: 0
# Processed by: cddbd v1.4PL0 Copyright (c) Steve Scherf et al.
# Submitted via: CDex 1.50
#
DISCID=27082805
DTITLE=Bing McCoy - Rings of Saturn
DYEAR=1988
DGENRE=New Age
TTITLE0=Vast and Constant
TTITLE1=Glitch
TTITLE2=Contemplating Space
TTITLE3=Ship's CPU wants to play
TTITLE4=Suddenly caught in the pull of gravity
EXTD=YEAR: 1988
EXTT0=
EXTT1=
EXTT2=
EXTT3=
EXTT4=
PLAYORDER=
